HIERARCHY
ROOT Hips
{
    OFFSET 0.000000 0.000000 0.000000
    CHANNELS 6 Xposition Yposition Zposition Zrotation Xrotation Yrotation
    JOINT Spine
    {
        OFFSET -0.000000 14.517291 0.000000
        CHANNELS 3 Zrotation Xrotation Yrotation
        JOINT Spine1
        {
            OFFSET -0.000000 37.558300 0.000000
            CHANNELS 3 Zrotation Xrotation Yrotation
            JOINT Neck
            {
                OFFSET -0.000000 37.404057 3.400369
                CHANNELS 3 Zrotation Xrotation Yrotation
                JOINT Head
                {
                    OFFSET -0.000000 24.785618 -3.540803
                    CHANNELS 3 Zrotation Xrotation Yrotation
                    End Site
                    {
                        OFFSET -0.000000 35.408028 0.000000
                    }
                }
            }
            JOINT LeftShoulder
            {
                OFFSET 6.992933 33.973492 -0.192664
                CHANNELS 3 Zrotation Xrotation Yrotation
                JOINT LeftArm
                {
                    OFFSET 21.527611 0.000000 0.000000
                    CHANNELS 3 Zrotation Xrotation Yrotation
                    JOINT LeftForeArm
                    {
                        OFFSET 56.353916 0.000000 0.000000
                        CHANNELS 3 Zrotation Xrotation Yrotation
                        JOINT LeftHand
                        {
                            OFFSET 47.774071 0.000000 0.000000
                            CHANNELS 3 Zrotation Xrotation Yrotation
                            End Site
                            {
                                OFFSET 26.556021 0.000000 0.000000
                            }
                        }
                    }
                }
            }
            JOINT RightShoulder
            {
                OFFSET -7.065357 33.973492 -0.192664
                CHANNELS 3 Zrotation Xrotation Yrotation
                JOINT RightArm
                {
                    OFFSET -21.527611 0.000000 0.000000
                    CHANNELS 3 Zrotation Xrotation Yrotation
                    JOINT RightForeArm
                    {
                        OFFSET -56.353916 0.000000 0.000000
                        CHANNELS 3 Zrotation Xrotation Yrotation
                        JOINT RightHand
                        {
                            OFFSET -47.774071 0.000000 0.000000
                            CHANNELS 3 Zrotation Xrotation Yrotation
                            End Site
                            {
                                OFFSET -26.556021 0.000000 0.000000
                            }
                        }
                    }
                }
            }
        }
    }
    JOINT LeftUpLeg
    {
        OFFSET 17.704014 0.000000 0.000000
        CHANNELS 3 Zrotation Xrotation Yrotation
        JOINT LeftLeg
        {
            OFFSET -0.000000 -81.181816 0.000000
            CHANNELS 3 Zrotation Xrotation Yrotation
            JOINT LeftFoot
            {
                OFFSET -0.000000 -62.821102 0.000000
                CHANNELS 3 Zrotation Xrotation Yrotation
                JOINT LeftToeBase
                {
                    OFFSET -0.000000 -11.507608 26.556021
                    CHANNELS 3 Zrotation Xrotation Yrotation
                    End Site
                    {
                        OFFSET -0.000000 0.000000 7.081605
                    }
                }
            }
        }
    }
    JOINT RightUpLeg
    {
        OFFSET -17.704014 0.000000 0.000000
        CHANNELS 3 Zrotation Xrotation Yrotation
        JOINT RightLeg
        {
            OFFSET -0.000000 -81.181816 0.000000
            CHANNELS 3 Zrotation Xrotation Yrotation
            JOINT RightFoot
            {
                OFFSET -0.000000 -62.821102 0.000000
                CHANNELS 3 Zrotation Xrotation Yrotation
                JOINT RightToeBase
                {
                    OFFSET -0.000000 -11.507608 26.556021
                    CHANNELS 3 Zrotation Xrotation Yrotation
                    End Site
                    {
                        OFFSET -0.000000 0.000000 7.081605
                    }
                }
            }
        }
    }
}
MOTION
Frames:    4
Frame Time:    0.008333
34.880573    159.590622    -101.505753    -1.265101    -0.748129    25.631702    -1.694441    -2.727300    -2.208480    -2.921428    -0.570299    -0.736421    4.064637    -0.403760    -3.574141    10.906647    2.860127    -3.049701    16.259060    -5.338058    -14.573070    -16.963499    -6.257548    -39.369106    -13.977368    -18.787788    -106.989799    -17.014528    -32.327301    -26.864761    -12.418859    4.572178    -8.586907    22.191185    21.924170    10.974925    17.912081    15.813883    4.139135    2.061356    15.589741    23.023104    9.054819    1.573540    0.110417    -10.247677    22.684286    -16.927996    6.304338    -22.427826    44.379337    0.000000    0.000000    0.000000    -14.478749    -26.786545    -8.312593    11.664084    27.871897    -13.883269    3.202007    12.409953    -12.860605    0.000000    0.000000    0.000000    
34.865566    159.584625    -101.514557    -1.267624    -0.769089    25.675747    -1.658113    -2.724814    -2.216189    -3.061875    -0.561356    -0.739742    4.286750    -0.381315    -3.561145    10.790306    2.839398    -3.081123    16.073441    -5.112198    -14.611453    -17.559505    -5.958160    -40.178501    -13.492881    -19.828333    -106.878914    -17.003862    -32.675308    -26.691381    -12.278358    4.547544    -8.555556    22.154646    22.015093    10.935234    17.824799    15.750267    4.203232    2.103420    15.528085    23.042881    9.081747    1.563500    0.067972    -10.269587    22.704725    -16.923939    6.323097    -22.428347    44.377487    0.000000    0.000000    0.000000    -14.472421    -26.758787    -8.313395    11.661195    27.865892    -13.894379    3.203810    12.400723    -12.877879    0.000000    0.000000    0.000000    
34.857113    159.574570    -101.518585    -1.260009    -0.791252    25.717258    -1.622180    -2.730105    -2.234135    -3.222152    -0.547882    -0.746368    4.523846    -0.327045    -3.541755    10.665905    2.798938    -3.105979    15.924499    -4.871732    -14.619468    -18.195213    -5.658713    -41.030834    -12.921150    -20.922710    -106.723434    -17.018173    -32.965450    -26.483896    -12.121181    4.533172    -8.490259    22.102032    22.039534    10.904284    17.795584    15.721836    4.208592    2.112606    15.502185    23.070801    9.094777    1.565160    0.059458    -10.271807    22.732121    -16.972784    6.336036    -22.445509    44.393997    0.000000    0.000000    0.000000    -14.479409    -26.722940    -8.305515    11.677631    27.858940    -13.915350    3.194226    12.376088    -12.893950    0.000000    0.000000    0.000000    
34.849815    159.570190    -101.527084    -1.248230    -0.804706    25.750351    -1.617181    -2.732265    -2.246148    -3.335866    -0.546856    -0.750867    4.745063    -0.287843    -3.523731    10.532103    2.779660    -3.133404    15.732033    -4.612889    -14.635295    -18.769886    -5.356309    -41.882763    -12.428164    -21.993750    -106.605141    -16.942831    -33.368664    -26.256506    -11.978284    4.512997    -8.421042    22.034723    22.073399    10.860380    17.767366    15.670397    4.229899    2.168502    15.459610    23.076355    9.096203    1.573177    0.046408    -10.270074    22.729626    -16.990444    6.339952    -22.442677    44.381989    0.000000    0.000000    0.000000    -14.496578    -26.696749    -8.280566    11.702636    27.849403    -13.939897    3.210896    12.356403    -12.921113    0.000000    0.000000    0.000000    
